<svg xmlns="http://www.w3.org/2000/svg" viewBox="0 0 48 48" fill="none">
  <!-- Factory body fill -->
  <path d="M6 40V22l10-8v8l10-8v8l10-8v16H6z" fill="#333333" opacity="0.08"/>
  <!-- Factory sawtooth roof -->
  <path d="M6 40V22l10-8v8l10-8v8l10-8v16" stroke="#333333" stroke-width="2" stroke-linejoin="round" fill="none"/>
  <!-- Ground -->
  <path d="M4 40h40" stroke="#333333" stroke-width="2" stroke-linecap="round"/>
  <!-- Chimney -->
  <rect x="36" y="14" width="6" height="26" rx="1" stroke="#333333" stroke-width="2" fill="none"/>
  <!-- Chimney top -->
  <path d="M38 14V10l1-2 1 2v4" stroke="#333333" stroke-width="1.5" stroke-linejoin="round" fill="none"/>
  <!-- Smoke -->
  <path d="M39.5 6q1.5-3 3 0" stroke="#333333" stroke-width="1.5" stroke-linecap="round" fill="none" opacity="0.3"/>
  <path d="M40 3q1-2 2 0" stroke="#333333" stroke-width="1" stroke-linecap="round" fill="none" opacity="0.2"/>
  <!-- Door / windows -->
  <rect x="12" y="30" width="6" height="10" rx="1" stroke="#333333" stroke-width="1.5" fill="none"/>
  <rect x="24" y="30" width="6" height="10" rx="1" stroke="#333333" stroke-width="1.5" fill="none"/>
  <!-- Window panes -->
  <path d="M15 30v10M12 35h6M27 30v10M24 35h6" stroke="#333333" stroke-width="0.75" opacity="0.25"/>
</svg>
