<svg xmlns="http://www.w3.org/2000/svg" viewBox="0 0 24 22" fill="none">
  <path fill-rule="evenodd" d="M8.691 2.188C3.891 2.188 0 5.476 0 9.53c0 2.212 1.17 4.203 3.002 5.55a.59.59 0 01.213.665l-.39 1.48c-.019.07-.048.141-.048.213 0 .163.13.295.294.295a.326.326 0 00.17-.054l1.82-1.073a.786.786 0 01.547-.1c.99.31 2.03.475 3.082.475.34 0 .675-.018 1.007-.047a5.854 5.854 0 01-.242-1.676c0-3.813 3.578-6.907 7.996-6.907.339 0 .673.018 1.003.048C16.953 4.74 13.2 2.188 8.691 2.188zM5.72 7.028a1.06 1.06 0 100 2.12 1.06 1.06 0 000-2.12zm5.438 0a1.06 1.06 0 100 2.12 1.06 1.06 0 000-2.12z" fill="#FFFFFF"/>
  <path fill-rule="evenodd" d="M24 14.355c0-3.345-3.304-6.06-7.36-6.06-4.058 0-7.362 2.715-7.362 6.06 0 3.345 3.304 6.06 7.361 6.06.852 0 1.672-.117 2.44-.33a.63.63 0 01.437.082l1.442.85a.26.26 0 00.136.042.236.236 0 00.236-.236c0-.058-.023-.114-.039-.17l-.308-1.17a.473.473 0 01.17-.533C22.983 17.965 24 16.282 24 14.355zm-9.768-.18a.845.845 0 100 1.69.845.845 0 000-1.69zm4.815 0a.845.845 0 100 1.69.845.845 0 000-1.69z" fill="#FFFFFF"/>
</svg>
